<svg id="Capa_1" data-name="Capa 1" xmlns="http://www.w3.org/2000/svg" viewBox="0 0 800 800"><title>PYMO</title><path d="M554.57,422.85H257.13a22.69,22.69,0,0,0-22.7,22.7V470a22.69,22.69,0,0,0,22.7,22.7h61.32a12.35,12.35,0,0,1,9.31,4.15,11.52,11.52,0,0,1,3,9C325.9,551.55,310.25,616,263.21,663a22.72,22.72,0,0,0,0,32.12l17.29,17.27a22.72,22.72,0,0,0,32.1,0c64.77-64.82,84-149.36,88.71-208.82,1-12.63,24.52-11.66,24.52,1.45V693.22a22.68,22.68,0,0,0,22.69,22.7H473a22.68,22.68,0,0,0,22.7-22.7V505a12.3,12.3,0,0,1,12.28-12.31h46.64a22.68,22.68,0,0,0,22.7-22.7V445.55A22.68,22.68,0,0,0,554.57,422.85Z"/><path d="M405.88,350.8c74.3,0,134.73-60.45,134.73-134.75S480.18,81.29,405.88,81.29,271.1,141.74,271.1,216.05,331.57,350.8,405.88,350.8Zm0-201.41a66.66,66.66,0,1,1-66.68,66.66A66.72,66.72,0,0,1,405.88,149.39Z"/></svg>